{"glyphs":{"0":{"ha":1153,"x_min":68,"x_max":1085,"o":"m 68 780 l 237 949 l 916 949 l 1085 780 l 1085 170 l 916 0 l 237 0 l 68 170 l 68 780 m 814 610 l 509 203 l 746 203 l 814 271 l 814 610 m 339 339 l 644 746 l 407 746 l 339 678 l 339 339 z "},"1":{"ha":543,"x_min":68,"x_max":475,"o":"m 136 949 l 475 949 l 475 0 l 203 0 l 203 746 l 68 746 l 136 949 z "},"2":{"ha":1153,"x_min":68,"x_max":1085,"o":"m 68 0 l 68 407 l 237 576 l 746 576 l 814 644 l 814 678 l 746 746 l 68 746 l 136 949 l 916 949 l 1085 780 l 1085 543 l 916 373 l 407 373 l 339 305 l 339 203 l 1085 203 l 1085 0 l 68 0 z "},"3":{"ha":1153,"x_min":68,"x_max":1085,"o":"m 68 203 l 746 203 l 814 271 l 814 305 l 746 373 l 68 373 l 68 576 l 746 576 l 814 644 l 814 678 l 746 746 l 68 746 l 136 949 l 916 949 l 1085 780 l 1085 576 l 983 475 l 1085 373 l 1085 170 l 916 0 l 136 0 l 68 203 z "},"4":{"ha":1153,"x_min":68,"x_max":1085,"o":"m 814 0 l 814 373 l 237 373 l 68 543 l 68 949 l 339 949 l 339 644 l 407 576 l 814 576 l 814 949 l 1085 949 l 1085 0 l 814 0 z "},"5":{"ha":1153,"x_min":68,"x_max":1085,"o":"m 1085 949 l 1085 746 l 339 746 l 339 610 l 916 610 l 1085 441 l 1085 170 l 916 0 l 136 0 l 68 203 l 746 203 l 814 271 l 814 339 l 746 407 l 68 407 l 68 949 l 1085 949 z "},"6":{"ha":1153,"x_min":68,"x_max":1085,"o":"m 814 339 l 746 407 l 407 407 l 407 610 l 916 610 l 1085 441 l 1085 170 l 916 0 l 237 0 l 68 170 l 68 780 l 237 949 l 1017 949 l 1085 746 l 407 746 l 339 678 l 339 271 l 407 203 l 746 203 l 814 271 l 814 339 z "},"7":{"ha":1153,"x_min":68,"x_max":1085,"o":"m 68 0 l 746 746 l 68 746 l 136 949 l 1085 949 l 1085 746 l 407 0 l 68 0 z "},"8":{"ha":1153,"x_min":68,"x_max":1085,"o":"m 68 170 l 68 373 l 170 475 l 68 576 l 68 780 l 237 949 l 916 949 l 1085 780 l 1085 576 l 983 475 l 1085 373 l 1085 170 l 916 0 l 237 0 l 68 170 m 407 746 l 339 678 l 339 644 l 407 576 l 746 576 l 814 644 l 814 678 l 746 746 l 407 746 m 407 373 l 339 305 l 339 271 l 407 203 l 746 203 l 814 271 l 814 305 l 746 373 l 407 373 z "},"9":{"ha":1153,"x_min":68,"x_max":1085,"o":"m 339 610 l 407 543 l 746 543 l 746 339 l 237 339 l 68 509 l 68 780 l 237 949 l 916 949 l 1085 780 l 1085 170 l 916 0 l 136 0 l 68 203 l 746 203 l 814 271 l 814 678 l 746 746 l 407 746 l 339 678 l 339 610 z "}," ":{"ha":543,"x_min":0,"x_max":0,"o":""},"!":{"ha":407,"x_min":68,"x_max":339,"o":"m 68 0 l 68 203 l 339 203 l 339 0 l 68 0 m 68 339 l 68 949 l 339 949 l 339 339 l 68 339 z "},"\"":{"ha":814,"x_min":68,"x_max":746,"o":"m 339 949 l 339 644 l 68 610 l 68 949 l 339 949 m 746 949 l 746 644 l 475 610 l 475 949 l 746 949 z "},"#":{"ha":1289,"x_min":68,"x_max":1221,"o":"m 678 949 l 620 746 l 823 746 l 882 949 l 1153 949 l 1095 746 l 1221 746 l 1221 543 l 1036 543 l 991 407 l 1221 407 l 1221 203 l 939 203 l 882 0 l 610 0 l 668 203 l 465 203 l 407 0 l 136 0 l 193 203 l 68 203 l 68 407 l 245 407 l 290 543 l 68 543 l 68 746 l 349 746 l 407 949 l 678 949 m 517 407 l 720 407 l 764 543 l 561 543 l 517 407 z "},"$":{"ha":1153,"x_min":68,"x_max":1085,"o":"m 644 0 l 644 -136 l 509 -136 l 509 0 l 136 0 l 68 203 l 509 203 l 509 373 l 237 373 l 68 543 l 68 780 l 237 949 l 509 949 l 509 1085 l 644 1085 l 644 949 l 1017 949 l 1085 746 l 644 746 l 644 576 l 916 576 l 1085 407 l 1085 170 l 916 0 l 644 0 m 407 576 l 509 576 l 509 746 l 407 746 l 339 678 l 339 644 l 407 576 m 644 373 l 644 203 l 746 203 l 814 271 l 814 305 l 746 373 l 644 373 z "},"%":{"ha":1424,"x_min":68,"x_max":1356,"o":"m 237 949 l 441 949 l 610 780 l 610 576 l 441 407 l 237 407 l 68 576 l 68 780 l 237 949 m 983 543 l 1187 543 l 1356 373 l 1356 170 l 1187 0 l 983 0 l 814 170 l 814 373 l 983 543 m 203 0 l 949 949 l 1221 949 l 475 0 l 203 0 m 1051 373 l 983 305 l 983 237 l 1051 170 l 1119 170 l 1187 237 l 1187 305 l 1119 373 l 1051 373 m 305 780 l 237 712 l 237 644 l 305 576 l 373 576 l 441 644 l 441 712 l 373 780 l 305 780 z "},"&":{"ha":1153,"x_min":68,"x_max":1085,"o":"m 814 271 l 814 543 l 1085 543 l 1085 170 l 916 0 l 237 0 l 68 170 l 68 373 l 170 475 l 68 576 l 68 780 l 237 949 l 882 949 l 949 746 l 407 746 l 339 678 l 339 644 l 407 576 l 678 576 l 678 373 l 407 373 l 339 305 l 339 271 l 407 203 l 746 203 l 814 271 z "},"'":{"ha":407,"x_min":68,"x_max":339,"o":"m 339 949 l 339 644 l 68 610 l 68 949 l 339 949 z "},"(":{"ha":610,"x_min":68,"x_max":543,"o":"m 339 271 l 407 203 l 543 203 l 475 0 l 237 0 l 68 170 l 68 780 l 237 949 l 475 949 l 543 746 l 407 746 l 339 678 l 339 271 z "},")":{"ha":610,"x_min":68,"x_max":543,"o":"m 271 678 l 203 746 l 68 746 l 136 949 l 373 949 l 543 780 l 543 170 l 373 0 l 136 0 l 68 203 l 203 203 l 271 271 l 271 678 z "},"*":{"ha":721,"x_min":68,"x_max":653,"o":"m 653 804 l 518 712 l 653 621 l 562 503 l 445 583 l 445 475 l 275 475 l 275 582 l 159 503 l 68 621 l 202 712 l 68 804 l 159 922 l 275 842 l 275 949 l 445 949 l 445 842 l 562 922 l 653 804 z "},"+":{"ha":882,"x_min":68,"x_max":814,"o":"m 576 780 l 576 576 l 814 576 l 814 373 l 576 373 l 576 170 l 305 170 l 305 373 l 68 373 l 68 576 l 305 576 l 305 780 l 576 780 z "},",":{"ha":407,"x_min":68,"x_max":339,"o":"m 339 136 l 339 -170 l 68 -203 l 68 136 l 339 136 z "},"-":{"ha":746,"x_min":68,"x_max":678,"o":"m 68 576 l 678 576 l 678 373 l 68 373 l 68 576 z "},".":{"ha":407,"x_min":68,"x_max":339,"o":"m 339 203 l 339 0 l 68 0 l 68 203 l 339 203 z "},"/":{"ha":746,"x_min":68,"x_max":678,"o":"m 678 949 l 353 0 l 68 0 l 393 949 l 678 949 z "},":":{"ha":407,"x_min":68,"x_max":339,"o":"m 339 203 l 339 0 l 68 0 l 68 203 l 339 203 m 339 746 l 339 543 l 68 543 l 68 746 l 339 746 z "},";":{"ha":407,"x_min":68,"x_max":339,"o":"m 339 136 l 339 -170 l 68 -203 l 68 136 l 339 136 m 339 746 l 339 543 l 68 543 l 68 746 l 339 746 z "},"<":{"ha":746,"x_min":68,"x_max":678,"o":"m 678 949 l 678 658 l 359 475 l 678 292 l 678 0 l 68 339 l 68 610 l 678 949 z "},"=":{"ha":746,"x_min":68,"x_max":678,"o":"m 68 763 l 678 763 l 678 559 l 68 559 l 68 763 m 68 390 l 678 390 l 678 186 l 68 186 l 68 390 z "},">":{"ha":746,"x_min":68,"x_max":678,"o":"m 68 0 l 68 292 l 387 475 l 68 658 l 68 949 l 678 610 l 678 339 l 68 0 z "},"?":{"ha":1153,"x_min":68,"x_max":1085,"o":"m 271 339 l 271 407 l 441 576 l 746 576 l 814 644 l 814 678 l 746 746 l 68 746 l 136 949 l 916 949 l 1085 780 l 1085 543 l 916 373 l 576 373 l 543 339 l 271 339 m 543 203 l 543 0 l 271 0 l 271 203 l 543 203 z "},"@":{"ha":1424,"x_min":68,"x_max":1356,"o":"m 1221 136 l 1153 -68 l 237 -68 l 68 102 l 68 848 l 237 1017 l 1187 1017 l 1356 848 l 1356 407 l 1187 237 l 766 237 l 766 597 l 699 597 l 658 556 l 658 387 l 692 353 l 732 353 l 732 237 l 576 237 l 475 339 l 475 610 l 576 712 l 949 712 l 949 359 l 1017 359 l 1085 427 l 1085 746 l 1017 814 l 407 814 l 339 746 l 339 203 l 407 136 l 1221 136 z "},"A":{"ha":1153,"x_min":68,"x_max":1085,"o":"m 68 746 l 481 949 l 671 949 l 1085 746 l 1085 0 l 814 0 l 814 305 l 407 305 l 407 509 l 814 509 l 814 624 l 610 732 l 543 732 l 339 624 l 339 0 l 68 0 l 68 746 z "},"B":{"ha":1153,"x_min":68,"x_max":1085,"o":"m 68 0 l 68 949 l 895 949 l 1065 780 l 1065 576 l 973 485 l 1085 373 l 1085 170 l 916 0 l 68 0 m 339 746 l 339 203 l 746 203 l 814 271 l 814 305 l 746 373 l 407 373 l 407 576 l 726 576 l 793 644 l 793 678 l 726 746 l 339 746 z "},"C":{"ha":1153,"x_min":68,"x_max":1085,"o":"m 339 271 l 407 203 l 1085 203 l 1017 0 l 237 0 l 68 170 l 68 780 l 237 949 l 1017 949 l 1085 746 l 407 746 l 339 678 l 339 271 z "},"D":{"ha":1153,"x_min":68,"x_max":1085,"o":"m 68 949 l 916 949 l 1085 780 l 1085 170 l 916 0 l 68 0 l 68 949 m 339 746 l 339 210 l 746 210 l 814 278 l 814 678 l 746 746 l 339 746 z "},"E":{"ha":1153,"x_min":68,"x_max":1085,"o":"m 1085 576 l 1085 373 l 339 373 l 339 271 l 407 203 l 1085 203 l 1017 0 l 237 0 l 68 170 l 68 780 l 237 949 l 1017 949 l 1085 746 l 407 746 l 339 678 l 339 576 l 1085 576 z "},"F":{"ha":1153,"x_min":68,"x_max":1085,"o":"m 1085 576 l 1085 373 l 339 373 l 339 0 l 68 0 l 68 780 l 237 949 l 1017 949 l 1085 746 l 407 746 l 339 678 l 339 576 l 1085 576 z "},"G":{"ha":1153,"x_min":68,"x_max":1085,"o":"m 814 373 l 543 373 l 543 576 l 1085 577 l 1085 170 l 916 0 l 237 0 l 68 170 l 68 780 l 237 949 l 1017 949 l 1085 746 l 407 746 l 339 678 l 339 271 l 407 203 l 746 203 l 814 271 l 814 373 z "},"H":{"ha":1153,"x_min":68,"x_max":1085,"o":"m 68 949 l 339 949 l 339 576 l 814 576 l 814 949 l 1085 949 l 1085 0 l 814 0 l 814 373 l 339 373 l 339 0 l 68 0 l 68 949 z "},"I":{"ha":407,"x_min":68,"x_max":339,"o":"m 339 949 l 339 0 l 68 0 l 68 949 l 339 949 z "},"J":{"ha":1153,"x_min":68,"x_max":1085,"o":"m 814 949 l 1085 949 l 1085 170 l 916 0 l 136 0 l 68 203 l 746 203 l 814 271 l 814 949 z "},"K":{"ha":1153,"x_min":68,"x_max":1085,"o":"m 339 949 l 339 576 l 610 576 l 800 949 l 1085 949 l 895 576 l 916 576 l 1085 407 l 1085 0 l 814 0 l 814 305 l 746 373 l 339 373 l 339 0 l 68 0 l 68 949 l 339 949 z "},"L":{"ha":1153,"x_min":68,"x_max":1085,"o":"m 339 271 l 407 203 l 1085 203 l 1017 0 l 237 0 l 68 170 l 68 949 l 339 949 l 339 271 z "},"M":{"ha":1356,"x_min":68,"x_max":1289,"o":"m 1119 949 l 1289 780 l 1289 0 l 1017 0 l 1017 678 l 949 746 l 814 746 l 814 0 l 543 0 l 543 746 l 407 746 l 339 678 l 339 0 l 68 0 l 68 780 l 237 949 l 1119 949 z "},"N":{"ha":1153,"x_min":68,"x_max":1085,"o":"m 407 746 l 339 678 l 339 0 l 68 0 l 68 780 l 237 949 l 916 949 l 1085 780 l 1085 0 l 814 0 l 814 678 l 746 746 l 407 746 z "},"O":{"ha":1153,"x_min":68,"x_max":1085,"o":"m 68 780 l 237 949 l 916 949 l 1085 780 l 1085 170 l 916 0 l 237 0 l 68 170 l 68 780 m 407 746 l 339 678 l 339 271 l 407 203 l 746 203 l 814 271 l 814 678 l 746 746 l 407 746 z "},"P":{"ha":1153,"x_min":68,"x_max":1085,"o":"m 916 949 l 1085 780 l 1085 475 l 916 305 l 407 305 l 407 509 l 746 509 l 814 576 l 814 678 l 746 746 l 339 746 l 339 0 l 68 0 l 68 949 l 916 949 z "},"Q":{"ha":1153,"x_min":68,"x_max":1085,"o":"m 68 780 l 237 949 l 916 949 l 1085 780 l 1085 170 l 916 0 l 833 0 l 882 -136 l 644 -136 l 595 0 l 237 0 l 68 170 l 68 780 m 712 339 l 757 214 l 814 271 l 814 678 l 746 746 l 407 746 l 339 678 l 339 271 l 407 203 l 523 203 l 475 339 l 712 339 z "},"R":{"ha":1153,"x_min":68,"x_max":1085,"o":"m 916 949 l 1085 780 l 1085 509 l 983 407 l 1085 305 l 1085 0 l 814 0 l 814 237 l 746 305 l 407 305 l 407 509 l 746 509 l 814 576 l 814 678 l 746 746 l 339 746 l 339 0 l 68 0 l 68 949 l 916 949 z "},"S":{"ha":1153,"x_min":68,"x_max":1085,"o":"m 136 0 l 68 203 l 746 203 l 814 271 l 814 305 l 746 373 l 237 373 l 68 543 l 68 780 l 237 949 l 1017 949 l 1085 746 l 407 746 l 339 678 l 339 644 l 407 576 l 916 576 l 1085 407 l 1085 170 l 916 0 l 136 0 z "},"T":{"ha":1153,"x_min":68,"x_max":1085,"o":"m 1085 949 l 1085 746 l 712 746 l 712 0 l 441 0 l 441 746 l 68 746 l 68 949 l 1085 949 z "},"U":{"ha":1153,"x_min":68,"x_max":1085,"o":"m 746 203 l 814 271 l 814 949 l 1085 949 l 1085 170 l 916 0 l 237 0 l 68 170 l 68 949 l 339 949 l 339 271 l 407 203 l 746 203 z "},"V":{"ha":1153,"x_min":68,"x_max":1085,"o":"m 1085 203 l 671 0 l 481 0 l 68 203 l 68 949 l 339 949 l 339 326 l 543 217 l 610 217 l 814 326 l 814 949 l 1085 949 l 1085 203 z "},"W":{"ha":1356,"x_min":68,"x_max":1289,"o":"m 237 0 l 68 170 l 68 949 l 339 949 l 339 271 l 407 203 l 543 203 l 543 949 l 814 949 l 814 203 l 949 203 l 1017 271 l 1017 949 l 1289 949 l 1289 170 l 1119 0 l 237 0 z "},"X":{"ha":1153,"x_min":68,"x_max":1085,"o":"m 68 0 l 425 473 l 68 949 l 368 949 l 576 673 l 785 949 l 1085 949 l 728 473 l 1085 0 l 781 0 l 576 271 l 372 0 l 68 0 z "},"Y":{"ha":1153,"x_min":68,"x_max":1085,"o":"m 68 949 l 339 949 l 339 624 l 543 522 l 610 522 l 814 624 l 814 949 l 1085 949 l 1085 509 l 712 319 l 712 0 l 441 0 l 441 319 l 68 509 l 68 949 z "},"Z":{"ha":1153,"x_min":68,"x_max":1085,"o":"m 68 0 l 68 203 l 712 746 l 68 746 l 68 949 l 1085 949 l 1085 746 l 441 203 l 1085 203 l 1085 0 l 68 0 z "},"[":{"ha":610,"x_min":68,"x_max":543,"o":"m 339 203 l 543 203 l 475 0 l 68 0 l 68 949 l 475 949 l 543 746 l 339 746 l 339 203 z "},"\\":{"ha":746,"x_min":68,"x_max":678,"o":"m 353 949 l 678 0 l 393 0 l 68 949 l 353 949 z "},"]":{"ha":610,"x_min":68,"x_max":543,"o":"m 271 746 l 68 746 l 136 949 l 543 949 l 543 0 l 136 0 l 68 203 l 271 203 l 271 746 z "},"^":{"ha":1017,"x_min":68,"x_max":949,"o":"m 699 949 l 949 543 l 658 543 l 509 814 l 359 543 l 68 543 l 319 949 l 699 949 z "},"_":{"ha":610,"x_min":0,"x_max":610,"o":"m 0 -102 l 610 -102 l 610 -271 l 0 -271 l 0 -102 z "},"`":{"ha":543,"x_min":68,"x_max":475,"o":"m 346 1051 l 475 848 l 197 848 l 68 1051 l 346 1051 z "},"a":{"ha":1017,"x_min":68,"x_max":949,"o":"m 68 170 l 68 305 l 237 475 l 610 475 l 610 271 l 407 271 l 373 237 l 407 203 l 610 203 l 678 271 l 678 475 l 610 543 l 136 543 l 203 746 l 780 746 l 949 576 l 949 170 l 780 0 l 237 0 l 68 170 z "},"b":{"ha":1017,"x_min":68,"x_max":949,"o":"m 678 271 l 678 475 l 610 543 l 407 543 l 407 746 l 780 746 l 949 576 l 949 170 l 780 0 l 237 0 l 68 170 l 68 949 l 339 949 l 339 271 l 407 203 l 610 203 l 678 271 z "},"c":{"ha":1017,"x_min":68,"x_max":949,"o":"m 949 543 l 407 543 l 339 475 l 339 271 l 407 203 l 949 203 l 882 0 l 237 0 l 68 170 l 68 576 l 237 746 l 882 746 l 949 543 z "},"d":{"ha":1017,"x_min":68,"x_max":949,"o":"m 68 170 l 68 576 l 237 746 l 610 746 l 610 543 l 407 543 l 339 475 l 339 271 l 407 203 l 610 203 l 678 271 l 678 949 l 949 949 l 949 170 l 780 0 l 237 0 l 68 170 z "},"e":{"ha":1017,"x_min":68,"x_max":949,"o":"m 949 576 l 949 441 l 780 271 l 407 271 l 407 475 l 610 475 l 644 509 l 610 543 l 407 543 l 339 475 l 339 271 l 407 203 l 882 203 l 814 0 l 237 0 l 68 170 l 68 576 l 237 746 l 780 746 l 949 576 z "},"f":{"ha":814,"x_min":68,"x_max":746,"o":"m 475 475 l 475 0 l 203 0 l 203 475 l 68 475 l 68 678 l 203 678 l 203 780 l 373 949 l 678 949 l 746 746 l 543 746 l 475 678 l 746 678 l 746 475 l 475 475 z "},"g":{"ha":1017,"x_min":68,"x_max":949,"o":"m 237 746 l 780 746 l 949 576 l 949 170 l 780 0 l 203 0 l 136 203 l 610 203 l 678 271 l 678 475 l 610 543 l 407 543 l 373 509 l 407 475 l 610 475 l 610 271 l 237 271 l 68 441 l 68 576 l 237 746 z "},"h":{"ha":1017,"x_min":68,"x_max":949,"o":"m 339 949 l 339 746 l 780 746 l 949 576 l 949 0 l 678 0 l 678 475 l 610 543 l 339 543 l 339 0 l 68 0 l 68 949 l 339 949 z "},"i":{"ha":407,"x_min":68,"x_max":339,"o":"m 339 610 l 339 0 l 68 0 l 68 610 l 339 610 m 339 949 l 339 746 l 68 746 l 68 949 l 339 949 z "},"j":{"ha":814,"x_min":68,"x_max":746,"o":"m 68 203 l 407 203 l 475 271 l 475 610 l 746 610 l 746 170 l 576 0 l 136 0 l 68 203 m 746 949 l 746 746 l 475 746 l 475 949 l 746 949 z "},"k":{"ha":1017,"x_min":68,"x_max":949,"o":"m 339 949 l 339 509 l 475 509 l 665 746 l 949 746 l 760 509 l 780 509 l 949 339 l 949 0 l 678 0 l 678 237 l 610 305 l 339 305 l 339 0 l 68 0 l 68 949 l 339 949 z "},"l":{"ha":407,"x_min":68,"x_max":339,"o":"m 339 949 l 339 0 l 68 0 l 68 949 l 339 949 z "},"m":{"ha":1356,"x_min":68,"x_max":1289,"o":"m 1119 746 l 1289 576 l 1289 0 l 1017 0 l 1017 475 l 949 543 l 814 543 l 814 0 l 543 0 l 543 543 l 407 543 l 339 475 l 339 0 l 68 0 l 68 576 l 237 746 l 1119 746 z "},"n":{"ha":1017,"x_min":68,"x_max":949,"o":"m 339 475 l 339 0 l 68 0 l 68 576 l 237 746 l 780 746 l 949 576 l 949 0 l 678 0 l 678 475 l 610 543 l 407 543 l 339 475 z "},"o":{"ha":1017,"x_min":68,"x_max":949,"o":"m 949 576 l 949 170 l 780 0 l 237 0 l 68 170 l 68 576 l 237 746 l 780 746 l 949 576 m 339 475 l 339 271 l 407 203 l 610 203 l 678 271 l 678 475 l 610 543 l 407 543 l 339 475 z "},"p":{"ha":1017,"x_min":68,"x_max":949,"o":"m 949 576 l 949 373 l 780 203 l 407 203 l 407 407 l 610 407 l 678 475 l 610 543 l 407 543 l 339 475 l 339 0 l 68 0 l 68 576 l 237 746 l 780 746 l 949 576 z "},"q":{"ha":1017,"x_min":68,"x_max":949,"o":"m 237 746 l 780 746 l 949 576 l 949 0 l 678 0 l 678 475 l 610 543 l 407 543 l 339 475 l 407 407 l 610 407 l 610 203 l 237 203 l 68 373 l 68 576 l 237 746 z "},"r":{"ha":814,"x_min":68,"x_max":746,"o":"m 746 543 l 407 543 l 339 475 l 339 0 l 68 0 l 68 576 l 237 746 l 678 746 l 746 543 z "},"s":{"ha":1017,"x_min":68,"x_max":949,"o":"m 780 475 l 949 305 l 949 170 l 780 0 l 136 0 l 68 203 l 610 203 l 644 237 l 610 271 l 237 271 l 68 441 l 68 576 l 237 746 l 882 746 l 949 543 l 407 543 l 373 509 l 407 475 l 780 475 z "},"t":{"ha":814,"x_min":68,"x_max":746,"o":"m 203 746 l 203 882 l 475 949 l 475 746 l 746 746 l 746 543 l 475 543 l 475 271 l 543 203 l 746 203 l 678 0 l 373 0 l 203 170 l 203 543 l 68 543 l 68 746 l 203 746 z "},"u":{"ha":1017,"x_min":68,"x_max":949,"o":"m 68 170 l 68 746 l 339 746 l 339 271 l 407 203 l 610 203 l 678 271 l 678 746 l 949 746 l 949 170 l 780 0 l 237 0 l 68 170 z "},"v":{"ha":1017,"x_min":68,"x_max":949,"o":"m 68 746 l 339 746 l 339 285 l 475 217 l 543 217 l 678 285 l 678 746 l 949 746 l 949 203 l 604 0 l 414 0 l 68 203 l 68 746 z "},"w":{"ha":1356,"x_min":68,"x_max":1289,"o":"m 237 0 l 68 170 l 68 746 l 339 746 l 339 271 l 407 203 l 543 203 l 543 746 l 814 746 l 814 203 l 949 203 l 1017 271 l 1017 746 l 1289 746 l 1289 170 l 1119 0 l 237 0 z "},"x":{"ha":1017,"x_min":68,"x_max":949,"o":"m 68 0 l 356 373 l 68 746 l 373 746 l 509 570 l 644 746 l 949 746 l 661 373 l 949 0 l 644 0 l 509 176 l 373 0 l 68 0 z "},"y":{"ha":1017,"x_min":68,"x_max":949,"o":"m 949 170 l 780 0 l 203 0 l 136 203 l 610 203 l 678 271 l 237 271 l 68 441 l 68 746 l 339 746 l 339 543 l 407 475 l 678 475 l 678 746 l 949 746 l 949 170 z "},"z":{"ha":1017,"x_min":68,"x_max":949,"o":"m 68 0 l 68 203 l 556 543 l 68 543 l 68 746 l 949 746 l 949 543 l 461 203 l 949 203 l 949 0 l 68 0 z "},"{":{"ha":949,"x_min":68,"x_max":882,"o":"m 509 949 l 814 949 l 882 746 l 678 746 l 610 678 l 610 576 l 509 475 l 610 373 l 610 271 l 678 203 l 882 203 l 814 0 l 509 0 l 339 170 l 339 305 l 271 373 l 68 373 l 68 576 l 271 576 l 339 644 l 339 780 l 509 949 z "},"|":{"ha":407,"x_min":68,"x_max":339,"o":"m 339 949 l 339 0 l 68 0 l 68 949 l 339 949 z "},"}":{"ha":949,"x_min":68,"x_max":882,"o":"m 441 0 l 136 0 l 68 203 l 271 203 l 339 271 l 339 373 l 441 475 l 339 576 l 339 678 l 271 746 l 68 746 l 136 949 l 441 949 l 610 780 l 610 644 l 678 576 l 882 576 l 882 373 l 678 373 l 610 305 l 610 170 l 441 0 z "},"~":{"ha":1153,"x_min":68,"x_max":1085,"o":"m 68 441 l 237 610 l 590 610 l 692 509 l 780 509 l 814 543 l 814 610 l 1085 610 l 1085 509 l 916 339 l 556 339 l 454 441 l 373 441 l 339 407 l 339 339 l 68 339 l 68 441 z "}," ":{"ha":543,"x_min":0,"x_max":0,"o":""},"¡":{"ha":407,"x_min":68,"x_max":339,"o":"m 339 949 l 339 746 l 68 746 l 68 949 l 339 949 m 339 610 l 339 0 l 68 0 l 68 610 l 339 610 z "},"¢":{"ha":1017,"x_min":68,"x_max":949,"o":"m 949 746 l 644 746 l 644 407 l 949 407 l 882 203 l 644 203 l 644 68 l 509 68 l 509 203 l 237 203 l 68 373 l 68 780 l 237 949 l 509 949 l 509 1085 l 644 1085 l 644 949 l 882 949 l 949 746 m 407 407 l 509 407 l 509 746 l 407 746 l 339 678 l 339 475 l 407 407 z "},"£":{"ha":1153,"x_min":68,"x_max":1085,"o":"m 68 203 l 203 203 l 203 373 l 68 373 l 68 576 l 203 576 l 203 780 l 373 949 l 882 949 l 949 746 l 543 746 l 475 678 l 475 576 l 814 576 l 814 373 l 475 373 l 475 203 l 746 203 l 814 271 l 814 339 l 1085 339 l 1085 170 l 916 0 l 68 0 l 68 203 z "},"¥":{"ha":1153,"x_min":68,"x_max":1085,"o":"m 68 949 l 339 949 l 339 692 l 543 590 l 610 590 l 814 692 l 814 949 l 1085 949 l 1085 576 l 751 407 l 983 407 l 983 271 l 712 271 l 712 203 l 983 203 l 983 68 l 712 68 l 712 0 l 441 0 l 441 68 l 170 68 l 170 203 l 441 203 l 441 271 l 170 271 l 170 407 l 402 407 l 68 576 l 68 949 z "},"¦":{"ha":407,"x_min":68,"x_max":339,"o":"m 339 949 l 339 543 l 68 543 l 68 949 l 339 949 m 339 407 l 339 0 l 68 0 l 68 407 l 339 407 z "},"¨":{"ha":814,"x_min":68,"x_max":746,"o":"m 339 1051 l 339 848 l 68 848 l 68 1051 l 339 1051 m 746 1051 l 746 848 l 475 848 l 475 1051 l 746 1051 z "},"©":{"ha":1424,"x_min":68,"x_max":1356,"o":"m 68 848 l 237 1017 l 1187 1017 l 1356 848 l 1356 102 l 1187 -68 l 237 -68 l 68 102 l 68 848 m 407 814 l 339 746 l 339 203 l 407 136 l 1017 136 l 1085 203 l 1085 746 l 1017 814 l 407 814 m 949 563 l 699 563 l 658 522 l 658 420 l 692 387 l 949 387 l 882 237 l 576 237 l 475 339 l 475 610 l 576 712 l 882 712 l 949 563 z "},"«":{"ha":882,"x_min":68,"x_max":814,"o":"m 407 882 l 407 576 l 305 475 l 407 373 l 407 68 l 68 407 l 68 543 l 407 882 m 814 882 l 814 576 l 712 475 l 814 373 l 814 68 l 475 407 l 475 543 l 814 882 z "},"¬":{"ha":746,"x_min":68,"x_max":678,"o":"m 68 576 l 678 576 l 678 170 l 407 170 l 407 373 l 68 373 l 68 576 z "},"®":{"ha":1424,"x_min":68,"x_max":1356,"o":"m 848 712 l 949 610 l 949 481 l 895 427 l 949 373 l 949 231 l 766 231 l 766 298 l 726 339 l 658 339 l 658 237 l 475 237 l 475 712 l 848 712 m 658 563 l 658 488 l 732 488 l 766 522 l 726 563 l 658 563 m 68 848 l 237 1017 l 1187 1017 l 1356 848 l 1356 102 l 1187 -68 l 237 -68 l 68 102 l 68 848 m 407 814 l 339 746 l 339 203 l 407 136 l 1017 136 l 1085 203 l 1085 746 l 1017 814 l 407 814 z "},"°":{"ha":678,"x_min":68,"x_max":610,"o":"m 610 780 l 610 576 l 441 407 l 237 407 l 68 576 l 68 780 l 237 949 l 441 949 l 610 780 m 237 712 l 237 644 l 305 576 l 373 576 l 441 644 l 441 712 l 373 780 l 305 780 l 237 712 z "},"±":{"ha":882,"x_min":68,"x_max":814,"o":"m 576 848 l 576 644 l 814 644 l 814 441 l 576 441 l 576 237 l 305 237 l 305 441 l 68 441 l 68 644 l 305 644 l 305 848 l 576 848 m 68 170 l 814 170 l 814 0 l 68 0 l 68 170 z "},"´":{"ha":543,"x_min":68,"x_max":475,"o":"m 475 1051 l 346 848 l 68 848 l 197 1051 l 475 1051 z "},"µ":{"ha":1017,"x_min":68,"x_max":949,"o":"m 68 746 l 339 746 l 339 373 l 610 373 l 678 441 l 678 746 l 949 746 l 949 339 l 780 170 l 339 170 l 339 0 l 68 0 l 68 746 z "},"¶":{"ha":1153,"x_min":68,"x_max":1085,"o":"m 1085 949 l 1085 0 l 814 0 l 814 746 l 712 746 l 712 0 l 441 0 l 441 339 l 237 339 l 68 509 l 68 780 l 237 949 l 1085 949 z "},"·":{"ha":407,"x_min":68,"x_max":339,"o":"m 68 373 l 68 576 l 339 576 l 339 373 l 68 373 z "},"¸":{"ha":543,"x_min":68,"x_max":475,"o":"m 68 -305 l 197 -102 l 475 -102 l 346 -305 l 68 -305 z "},"»":{"ha":882,"x_min":68,"x_max":814,"o":"m 475 68 l 475 373 l 576 475 l 475 576 l 475 882 l 814 543 l 814 407 l 475 68 m 68 68 l 68 373 l 170 475 l 68 576 l 68 882 l 407 543 l 407 407 l 68 68 z "},"¿":{"ha":1153,"x_min":68,"x_max":1085,"o":"m 882 610 l 882 543 l 712 373 l 407 373 l 339 305 l 339 271 l 407 204 l 1085 204 l 1017 0 l 237 0 l 68 170 l 68 407 l 237 576 l 577 576 l 610 610 l 882 610 m 610 746 l 610 949 l 882 949 l 882 746 l 610 746 z "},"À":{"ha":1153,"x_min":68,"x_max":1085,"o":"m 68 746 l 481 949 l 671 949 l 1085 746 l 1085 0 l 814 0 l 814 305 l 407 305 l 407 509 l 814 509 l 814 624 l 610 732 l 543 732 l 339 624 l 339 0 l 68 0 l 68 746 m 583 1255 l 712 1051 l 434 1051 l 305 1255 l 583 1255 z "},"Á":{"ha":1153,"x_min":68,"x_max":1085,"o":"m 68 746 l 481 949 l 671 949 l 1085 746 l 1085 0 l 814 0 l 814 305 l 407 305 l 407 509 l 814 509 l 814 624 l 610 732 l 543 732 l 339 624 l 339 0 l 68 0 l 68 746 m 848 1255 l 719 1051 l 441 1051 l 570 1255 l 848 1255 z "},"Â":{"ha":1153,"x_min":68,"x_max":1085,"o":"m 68 746 l 481 949 l 671 949 l 1085 746 l 1085 0 l 814 0 l 814 305 l 407 305 l 407 509 l 814 509 l 814 624 l 610 732 l 543 732 l 339 624 l 339 0 l 68 0 l 68 746 m 787 1322 l 949 1051 l 658 1051 l 576 1187 l 495 1051 l 203 1051 l 373 1322 l 787 1322 z "},"Ã":{"ha":1153,"x_min":68,"x_max":1085,"o":"m 68 746 l 481 949 l 671 949 l 1085 746 l 1085 0 l 814 0 l 814 305 l 407 305 l 407 509 l 814 509 l 814 624 l 610 732 l 543 732 l 339 624 l 339 0 l 68 0 l 68 746 m 214 1153 l 349 1289 l 566 1289 l 654 1200 l 736 1200 l 756 1221 l 756 1289 l 939 1289 l 939 1187 l 804 1051 l 588 1051 l 587 1048 l 498 1139 l 417 1139 l 397 1119 l 397 1051 l 214 1051 l 214 1153 z "},"Ä":{"ha":1153,"x_min":68,"x_max":1085,"o":"m 68 746 l 481 949 l 671 949 l 1085 746 l 1085 0 l 814 0 l 814 305 l 407 305 l 407 509 l 814 509 l 814 624 l 610 732 l 543 732 l 339 624 l 339 0 l 68 0 l 68 746 m 509 1255 l 509 1051 l 237 1051 l 237 1255 l 509 1255 m 916 1255 l 916 1051 l 644 1051 l 644 1255 l 916 1255 z "},"Å":{"ha":1153,"x_min":68,"x_max":1085,"o":"m 68 746 l 481 949 l 671 949 l 1085 746 l 1085 0 l 814 0 l 814 305 l 407 305 l 407 509 l 814 509 l 814 624 l 610 732 l 543 732 l 339 624 l 339 0 l 68 0 l 68 746 m 695 1390 l 797 1289 l 797 1153 l 695 1051 l 458 1051 l 356 1153 l 356 1289 l 458 1390 l 695 1390 m 526 1238 l 526 1204 l 559 1170 l 593 1170 l 627 1204 l 627 1238 l 593 1272 l 559 1272 l 526 1238 z "},"Æ":{"ha":1899,"x_min":68,"x_max":1831,"o":"m 68 746 l 481 949 l 671 949 l 880 846 l 983 949 l 1763 949 l 1831 746 l 1153 746 l 1085 678 l 1085 576 l 1831 576 l 1831 373 l 1085 373 l 1085 271 l 1153 203 l 1831 203 l 1763 0 l 983 0 l 814 170 l 814 305 l 407 305 l 407 509 l 814 509 l 814 624 l 610 732 l 543 732 l 339 624 l 339 0 l 68 0 l 68 746 z "},"Ç":{"ha":1153,"x_min":68,"x_max":1085,"o":"m 339 271 l 407 203 l 1085 203 l 1017 0 l 237 0 l 68 170 l 68 780 l 237 949 l 1017 949 l 1085 746 l 407 746 l 339 678 l 339 271 m 373 -305 l 502 -102 l 780 -102 l 651 -305 l 373 -305 z "},"È":{"ha":1153,"x_min":68,"x_max":1085,"o":"m 1085 576 l 1085 373 l 339 373 l 339 271 l 407 203 l 1085 203 l 1017 0 l 237 0 l 68 170 l 68 780 l 237 949 l 1017 949 l 1085 746 l 407 746 l 339 678 l 339 576 l 1085 576 m 583 1255 l 712 1051 l 434 1051 l 305 1255 l 583 1255 z "},"É":{"ha":1153,"x_min":68,"x_max":1085,"o":"m 1085 576 l 1085 373 l 339 373 l 339 271 l 407 203 l 1085 203 l 1017 0 l 237 0 l 68 170 l 68 780 l 237 949 l 1017 949 l 1085 746 l 407 746 l 339 678 l 339 576 l 1085 576 m 848 1255 l 719 1051 l 441 1051 l 570 1255 l 848 1255 z "},"Ê":{"ha":1153,"x_min":68,"x_max":1085,"o":"m 1085 576 l 1085 373 l 339 373 l 339 271 l 407 203 l 1085 203 l 1017 0 l 237 0 l 68 170 l 68 780 l 237 949 l 1017 949 l 1085 746 l 407 746 l 339 678 l 339 576 l 1085 576 m 787 1322 l 949 1051 l 658 1051 l 576 1187 l 495 1051 l 203 1051 l 373 1322 l 787 1322 z "},"Ë":{"ha":1153,"x_min":68,"x_max":1085,"o":"m 1085 576 l 1085 373 l 339 373 l 339 271 l 407 203 l 1085 203 l 1017 0 l 237 0 l 68 170 l 68 780 l 237 949 l 1017 949 l 1085 746 l 407 746 l 339 678 l 339 576 l 1085 576 m 509 1255 l 509 1051 l 237 1051 l 237 1255 l 509 1255 m 916 1255 l 916 1051 l 644 1051 l 644 1255 l 916 1255 z "},"Ì":{"ha":543,"x_min":68,"x_max":475,"o":"m 475 949 l 475 0 l 203 0 l 203 949 l 475 949 m 346 1255 l 475 1051 l 197 1051 l 68 1255 l 346 1255 z "},"Í":{"ha":543,"x_min":68,"x_max":475,"o":"m 339 949 l 339 0 l 68 0 l 68 949 l 339 949 m 475 1255 l 346 1051 l 68 1051 l 197 1255 l 475 1255 z "},"Î":{"ha":882,"x_min":68,"x_max":814,"o":"m 576 949 l 576 0 l 305 0 l 305 949 l 576 949 m 651 1322 l 814 1051 l 522 1051 l 441 1187 l 359 1051 l 68 1051 l 237 1322 l 651 1322 z "},"Ï":{"ha":814,"x_min":68,"x_max":746,"o":"m 543 949 l 543 0 l 271 0 l 271 949 l 543 949 m 339 1255 l 339 1051 l 68 1051 l 68 1255 l 339 1255 m 746 1255 l 746 1051 l 475 1051 l 475 1255 l 746 1255 z "},"Ð":{"ha":1289,"x_min":68,"x_max":1221,"o":"m 203 0 l 203 373 l 68 373 l 68 576 l 203 576 l 203 949 l 1051 949 l 1221 780 l 1221 170 l 1051 0 l 203 0 m 882 203 l 949 271 l 949 678 l 882 746 l 475 746 l 475 576 l 746 576 l 746 373 l 475 373 l 475 203 l 882 203 z "},"Ñ":{"ha":1153,"x_min":68,"x_max":1085,"o":"m 407 746 l 339 678 l 339 0 l 68 0 l 68 780 l 237 949 l 916 949 l 1085 780 l 1085 0 l 814 0 l 814 678 l 746 746 l 407 746 m 214 1153 l 349 1289 l 566 1289 l 654 1200 l 736 1200 l 756 1221 l 756 1289 l 939 1289 l 939 1187 l 804 1051 l 588 1051 l 587 1048 l 498 1139 l 417 1139 l 397 1119 l 397 1051 l 214 1051 l 214 1153 z "},"Ò":{"ha":1153,"x_min":68,"x_max":1085,"o":"m 68 780 l 237 949 l 916 949 l 1085 780 l 1085 170 l 916 0 l 237 0 l 68 170 l 68 780 m 407 746 l 339 678 l 339 271 l 407 203 l 746 203 l 814 271 l 814 678 l 746 746 l 407 746 m 583 1255 l 712 1051 l 434 1051 l 305 1255 l 583 1255 z "},"Ó":{"ha":1153,"x_min":68,"x_max":1085,"o":"m 68 780 l 237 949 l 916 949 l 1085 780 l 1085 170 l 916 0 l 237 0 l 68 170 l 68 780 m 407 746 l 339 678 l 339 271 l 407 203 l 746 203 l 814 271 l 814 678 l 746 746 l 407 746 m 848 1255 l 719 1051 l 441 1051 l 570 1255 l 848 1255 z "},"Ô":{"ha":1153,"x_min":68,"x_max":1085,"o":"m 68 780 l 237 949 l 916 949 l 1085 780 l 1085 170 l 916 0 l 237 0 l 68 170 l 68 780 m 407 746 l 339 678 l 339 271 l 407 203 l 746 203 l 814 271 l 814 678 l 746 746 l 407 746 m 787 1322 l 949 1051 l 658 1051 l 576 1187 l 495 1051 l 203 1051 l 373 1322 l 787 1322 z "},"Õ":{"ha":1153,"x_min":68,"x_max":1085,"o":"m 68 780 l 237 949 l 916 949 l 1085 780 l 1085 170 l 916 0 l 237 0 l 68 170 l 68 780 m 407 746 l 339 678 l 339 271 l 407 203 l 746 203 l 814 271 l 814 678 l 746 746 l 407 746 m 214 1153 l 349 1289 l 566 1289 l 654 1200 l 736 1200 l 756 1221 l 756 1289 l 939 1289 l 939 1187 l 804 1051 l 588 1051 l 587 1048 l 498 1139 l 417 1139 l 397 1119 l 397 1051 l 214 1051 l 214 1153 z "},"Ö":{"ha":1153,"x_min":68,"x_max":1085,"o":"m 68 780 l 237 949 l 916 949 l 1085 780 l 1085 170 l 916 0 l 237 0 l 68 170 l 68 780 m 407 746 l 339 678 l 339 271 l 407 203 l 746 203 l 814 271 l 814 678 l 746 746 l 407 746 m 509 1255 l 509 1051 l 237 1051 l 237 1255 l 509 1255 m 916 1255 l 916 1051 l 644 1051 l 644 1255 l 916 1255 z "},"×":{"ha":828,"x_min":68,"x_max":760,"o":"m 233 814 l 414 633 l 595 814 l 760 650 l 578 469 l 760 287 l 595 122 l 414 304 l 233 122 l 68 287 l 249 469 l 68 650 l 233 814 z "},"Ø":{"ha":1153,"x_min":68,"x_max":1085,"o":"m 68 780 l 237 949 l 916 949 l 1085 780 l 1085 170 l 916 0 l 237 0 l 68 170 l 68 780 m 814 610 l 509 203 l 746 203 l 814 271 l 814 610 m 339 339 l 644 746 l 407 746 l 339 678 l 339 339 z "},"Ù":{"ha":1153,"x_min":68,"x_max":1085,"o":"m 746 203 l 814 271 l 814 949 l 1085 949 l 1085 170 l 916 0 l 237 0 l 68 170 l 68 949 l 339 949 l 339 271 l 407 203 l 746 203 m 583 1255 l 712 1051 l 434 1051 l 305 1255 l 583 1255 z "},"Ú":{"ha":1153,"x_min":68,"x_max":1085,"o":"m 746 203 l 814 271 l 814 949 l 1085 949 l 1085 170 l 916 0 l 237 0 l 68 170 l 68 949 l 339 949 l 339 271 l 407 203 l 746 203 m 848 1255 l 719 1051 l 441 1051 l 570 1255 l 848 1255 z "},"Û":{"ha":1153,"x_min":68,"x_max":1085,"o":"m 746 203 l 814 271 l 814 949 l 1085 949 l 1085 170 l 916 0 l 237 0 l 68 170 l 68 949 l 339 949 l 339 271 l 407 203 l 746 203 m 787 1322 l 949 1051 l 658 1051 l 576 1187 l 495 1051 l 203 1051 l 373 1322 l 787 1322 z "},"Ü":{"ha":1153,"x_min":68,"x_max":1085,"o":"m 746 203 l 814 271 l 814 949 l 1085 949 l 1085 170 l 916 0 l 237 0 l 68 170 l 68 949 l 339 949 l 339 271 l 407 203 l 746 203 m 509 1255 l 509 1051 l 237 1051 l 237 1255 l 509 1255 m 916 1255 l 916 1051 l 644 1051 l 644 1255 l 916 1255 z "},"Ý":{"ha":1153,"x_min":68,"x_max":1085,"o":"m 68 949 l 339 949 l 339 624 l 543 522 l 610 522 l 814 624 l 814 949 l 1085 949 l 1085 509 l 712 319 l 712 0 l 441 0 l 441 319 l 68 509 l 68 949 m 848 1255 l 719 1051 l 441 1051 l 570 1255 l 848 1255 z "},"Þ":{"ha":1153,"x_min":68,"x_max":1085,"o":"m 339 949 l 339 780 l 916 780 l 1085 610 l 1085 339 l 916 170 l 407 170 l 407 373 l 746 373 l 814 441 l 814 509 l 746 576 l 339 576 l 339 0 l 68 0 l 68 949 l 339 949 z "},"ß":{"ha":1153,"x_min":68,"x_max":1085,"o":"m 407 0 l 407 203 l 746 203 l 814 271 l 814 305 l 746 373 l 407 373 l 407 576 l 726 576 l 793 644 l 793 678 l 726 746 l 407 746 l 339 678 l 339 0 l 68 0 l 68 780 l 237 949 l 895 949 l 1065 780 l 1065 576 l 973 485 l 1085 373 l 1085 170 l 916 0 l 407 0 z "},"à":{"ha":1017,"x_min":68,"x_max":949,"o":"m 68 170 l 68 305 l 237 475 l 610 475 l 610 271 l 407 271 l 373 237 l 407 203 l 610 203 l 678 271 l 678 475 l 610 543 l 136 543 l 203 746 l 780 746 l 949 576 l 949 170 l 780 0 l 237 0 l 68 170 m 515 1051 l 644 848 l 366 848 l 237 1051 l 515 1051 z "},"á":{"ha":1017,"x_min":68,"x_max":949,"o":"m 68 170 l 68 305 l 237 475 l 610 475 l 610 271 l 407 271 l 373 237 l 407 203 l 610 203 l 678 271 l 678 475 l 610 543 l 136 543 l 203 746 l 780 746 l 949 576 l 949 170 l 780 0 l 237 0 l 68 170 m 780 1051 l 651 848 l 373 848 l 502 1051 l 780 1051 z "},"â":{"ha":1017,"x_min":68,"x_max":949,"o":"m 68 170 l 68 305 l 237 475 l 610 475 l 610 271 l 407 271 l 373 237 l 407 203 l 610 203 l 678 271 l 678 475 l 610 543 l 136 543 l 203 746 l 780 746 l 949 576 l 949 170 l 780 0 l 237 0 l 68 170 m 719 1119 l 882 848 l 590 848 l 509 983 l 427 848 l 136 848 l 305 1119 l 719 1119 z "},"ã":{"ha":1017,"x_min":68,"x_max":949,"o":"m 68 170 l 68 305 l 237 475 l 610 475 l 610 271 l 407 271 l 373 237 l 407 203 l 610 203 l 678 271 l 678 475 l 610 543 l 136 543 l 203 746 l 780 746 l 949 576 l 949 170 l 780 0 l 237 0 l 68 170 m 146 949 l 281 1085 l 498 1085 l 587 997 l 668 997 l 688 1017 l 688 1085 l 871 1085 l 871 983 l 736 848 l 520 848 l 519 845 l 431 936 l 349 936 l 329 916 l 329 848 l 146 848 l 146 949 z "},"ä":{"ha":1017,"x_min":68,"x_max":949,"o":"m 68 170 l 68 305 l 237 475 l 610 475 l 610 271 l 407 271 l 373 237 l 407 203 l 610 203 l 678 271 l 678 475 l 610 543 l 136 543 l 203 746 l 780 746 l 949 576 l 949 170 l 780 0 l 237 0 l 68 170 m 441 1051 l 441 848 l 170 848 l 170 1051 l 441 1051 m 848 1051 l 848 848 l 576 848 l 576 1051 l 848 1051 z "},"å":{"ha":1017,"x_min":68,"x_max":949,"o":"m 68 170 l 68 305 l 237 475 l 610 475 l 610 271 l 407 271 l 373 237 l 407 203 l 610 203 l 678 271 l 678 475 l 610 543 l 136 543 l 203 746 l 780 746 l 949 576 l 949 170 l 780 0 l 237 0 l 68 170 m 627 1187 l 729 1085 l 729 949 l 627 848 l 390 848 l 288 949 l 288 1085 l 390 1187 l 627 1187 m 458 1034 l 458 1000 l 492 966 l 526 966 l 559 1000 l 559 1034 l 526 1068 l 492 1068 l 458 1034 z "},"æ":{"ha":1628,"x_min":68,"x_max":1560,"o":"m 68 170 l 68 305 l 237 475 l 610 475 l 610 271 l 407 271 l 373 237 l 407 203 l 610 203 l 678 271 l 678 475 l 610 543 l 136 543 l 203 746 l 746 746 l 814 678 l 882 746 l 1390 746 l 1560 576 l 1560 441 l 1390 271 l 1017 271 l 1017 475 l 1221 475 l 1255 509 l 1221 543 l 1017 543 l 949 475 l 949 271 l 1017 203 l 1492 203 l 1424 0 l 882 0 l 814 68 l 746 0 l 237 0 l 68 170 z "},"ç":{"ha":1017,"x_min":68,"x_max":949,"o":"m 949 543 l 407 543 l 339 475 l 339 271 l 407 203 l 949 203 l 882 0 l 237 0 l 68 170 l 68 576 l 237 746 l 882 746 l 949 543 m 305 -305 l 434 -102 l 712 -102 l 583 -305 l 305 -305 z "},"è":{"ha":1017,"x_min":68,"x_max":949,"o":"m 949 576 l 949 441 l 780 271 l 407 271 l 407 475 l 610 475 l 644 509 l 610 543 l 407 543 l 339 475 l 339 271 l 407 203 l 882 203 l 814 0 l 237 0 l 68 170 l 68 576 l 237 746 l 780 746 l 949 576 m 515 1051 l 644 848 l 366 848 l 237 1051 l 515 1051 z "},"é":{"ha":1017,"x_min":68,"x_max":949,"o":"m 949 576 l 949 441 l 780 271 l 407 271 l 407 475 l 610 475 l 644 509 l 610 543 l 407 543 l 339 475 l 339 271 l 407 203 l 882 203 l 814 0 l 237 0 l 68 170 l 68 576 l 237 746 l 780 746 l 949 576 m 780 1051 l 651 848 l 373 848 l 502 1051 l 780 1051 z "},"ê":{"ha":1017,"x_min":68,"x_max":949,"o":"m 949 576 l 949 441 l 780 271 l 407 271 l 407 475 l 610 475 l 644 509 l 610 543 l 407 543 l 339 475 l 339 271 l 407 203 l 882 203 l 814 0 l 237 0 l 68 170 l 68 576 l 237 746 l 780 746 l 949 576 m 719 1119 l 882 848 l 590 848 l 509 983 l 427 848 l 136 848 l 305 1119 l 719 1119 z "},"ë":{"ha":1017,"x_min":68,"x_max":949,"o":"m 949 576 l 949 441 l 780 271 l 407 271 l 407 475 l 610 475 l 644 509 l 610 543 l 407 543 l 339 475 l 339 271 l 407 203 l 882 203 l 814 0 l 237 0 l 68 170 l 68 576 l 237 746 l 780 746 l 949 576 m 441 1051 l 441 848 l 170 848 l 170 1051 l 441 1051 m 848 1051 l 848 848 l 576 848 l 576 1051 l 848 1051 z "},"ì":{"ha":543,"x_min":68,"x_max":475,"o":"m 475 746 l 475 0 l 203 0 l 203 746 l 475 746 m 346 1051 l 475 848 l 197 848 l 68 1051 l 346 1051 z "},"í":{"ha":543,"x_min":68,"x_max":475,"o":"m 339 746 l 339 0 l 68 0 l 68 746 l 339 746 m 475 1051 l 346 848 l 68 848 l 197 1051 l 475 1051 z "},"î":{"ha":882,"x_min":68,"x_max":814,"o":"m 576 746 l 576 0 l 305 0 l 305 746 l 576 746 m 651 1119 l 814 848 l 522 848 l 441 983 l 359 848 l 68 848 l 237 1119 l 651 1119 z "},"ï":{"ha":814,"x_min":68,"x_max":746,"o":"m 543 746 l 543 0 l 271 0 l 271 746 l 543 746 m 339 1051 l 339 848 l 68 848 l 68 1051 l 339 1051 m 746 1051 l 746 848 l 475 848 l 475 1051 l 746 1051 z "},"ð":{"ha":1153,"x_min":68,"x_max":1085,"o":"m 68 170 l 68 441 l 237 610 l 610 610 l 610 407 l 407 407 l 339 339 l 339 271 l 407 203 l 610 203 l 678 271 l 678 678 l 407 678 l 407 848 l 678 848 l 678 949 l 949 949 l 949 848 l 1085 848 l 1085 678 l 949 678 l 949 170 l 780 0 l 237 0 l 68 170 z "},"ñ":{"ha":1017,"x_min":68,"x_max":949,"o":"m 339 475 l 339 0 l 68 0 l 68 576 l 237 746 l 780 746 l 949 576 l 949 0 l 678 0 l 678 475 l 610 543 l 407 543 l 339 475 m 146 949 l 281 1085 l 498 1085 l 587 997 l 668 997 l 688 1017 l 688 1085 l 871 1085 l 871 983 l 736 848 l 520 848 l 519 845 l 431 936 l 349 936 l 329 916 l 329 848 l 146 848 l 146 949 z "},"ò":{"ha":1017,"x_min":68,"x_max":949,"o":"m 949 576 l 949 170 l 780 0 l 237 0 l 68 170 l 68 576 l 237 746 l 780 746 l 949 576 m 339 475 l 339 271 l 407 203 l 610 203 l 678 271 l 678 475 l 610 543 l 407 543 l 339 475 m 515 1051 l 644 848 l 366 848 l 237 1051 l 515 1051 z "},"ó":{"ha":1017,"x_min":68,"x_max":949,"o":"m 949 576 l 949 170 l 780 0 l 237 0 l 68 170 l 68 576 l 237 746 l 780 746 l 949 576 m 339 475 l 339 271 l 407 203 l 610 203 l 678 271 l 678 475 l 610 543 l 407 543 l 339 475 m 780 1051 l 651 848 l 373 848 l 502 1051 l 780 1051 z "},"ô":{"ha":1017,"x_min":68,"x_max":949,"o":"m 949 576 l 949 170 l 780 0 l 237 0 l 68 170 l 68 576 l 237 746 l 780 746 l 949 576 m 339 475 l 339 271 l 407 203 l 610 203 l 678 271 l 678 475 l 610 543 l 407 543 l 339 475 m 719 1119 l 882 848 l 590 848 l 509 983 l 427 848 l 136 848 l 305 1119 l 719 1119 z "},"õ":{"ha":1017,"x_min":68,"x_max":949,"o":"m 949 576 l 949 170 l 780 0 l 237 0 l 68 170 l 68 576 l 237 746 l 780 746 l 949 576 m 339 475 l 339 271 l 407 203 l 610 203 l 678 271 l 678 475 l 610 543 l 407 543 l 339 475 m 146 949 l 281 1085 l 498 1085 l 587 997 l 668 997 l 688 1017 l 688 1085 l 871 1085 l 871 983 l 736 848 l 520 848 l 519 845 l 431 936 l 349 936 l 329 916 l 329 848 l 146 848 l 146 949 z "},"ö":{"ha":1017,"x_min":68,"x_max":949,"o":"m 949 576 l 949 170 l 780 0 l 237 0 l 68 170 l 68 576 l 237 746 l 780 746 l 949 576 m 339 475 l 339 271 l 407 203 l 610 203 l 678 271 l 678 475 l 610 543 l 407 543 l 339 475 m 441 1051 l 441 848 l 170 848 l 170 1051 l 441 1051 m 848 1051 l 848 848 l 576 848 l 576 1051 l 848 1051 z "},"÷":{"ha":882,"x_min":68,"x_max":814,"o":"m 68 576 l 814 576 l 814 373 l 68 373 l 68 576 m 576 237 l 576 34 l 305 34 l 305 237 l 576 237 m 576 916 l 576 712 l 305 712 l 305 916 l 576 916 z "},"ø":{"ha":1017,"x_min":68,"x_max":949,"o":"m 949 576 l 949 170 l 780 0 l 237 0 l 68 170 l 68 576 l 237 746 l 780 746 l 949 576 m 610 203 l 678 271 l 680 422 l 454 203 l 610 203 m 339 475 l 339 339 l 341 336 l 549 543 l 407 543 l 339 475 z "},"ù":{"ha":1017,"x_min":68,"x_max":949,"o":"m 68 170 l 68 746 l 339 746 l 339 271 l 407 203 l 610 203 l 678 271 l 678 746 l 949 746 l 949 170 l 780 0 l 237 0 l 68 170 m 515 1051 l 644 848 l 366 848 l 237 1051 l 515 1051 z "},"ú":{"ha":1017,"x_min":68,"x_max":949,"o":"m 68 170 l 68 746 l 339 746 l 339 271 l 407 203 l 610 203 l 678 271 l 678 746 l 949 746 l 949 170 l 780 0 l 237 0 l 68 170 m 780 1051 l 651 848 l 373 848 l 502 1051 l 780 1051 z "},"û":{"ha":1017,"x_min":68,"x_max":949,"o":"m 68 170 l 68 746 l 339 746 l 339 271 l 407 203 l 610 203 l 678 271 l 678 746 l 949 746 l 949 170 l 780 0 l 237 0 l 68 170 m 719 1119 l 882 848 l 590 848 l 509 983 l 427 848 l 136 848 l 305 1119 l 719 1119 z "},"ü":{"ha":1017,"x_min":68,"x_max":949,"o":"m 68 170 l 68 746 l 339 746 l 339 271 l 407 203 l 610 203 l 678 271 l 678 746 l 949 746 l 949 170 l 780 0 l 237 0 l 68 170 m 441 1051 l 441 848 l 170 848 l 170 1051 l 441 1051 m 848 1051 l 848 848 l 576 848 l 576 1051 l 848 1051 z "},"ý":{"ha":1017,"x_min":68,"x_max":949,"o":"m 949 170 l 780 0 l 203 0 l 136 203 l 610 203 l 678 271 l 237 271 l 68 441 l 68 746 l 339 746 l 339 543 l 407 475 l 678 475 l 678 746 l 949 746 l 949 170 m 780 1051 l 651 848 l 373 848 l 502 1051 l 780 1051 z "},"þ":{"ha":1017,"x_min":68,"x_max":949,"o":"m 68 949 l 339 949 l 339 746 l 780 746 l 949 576 l 949 305 l 780 136 l 407 136 l 407 339 l 610 339 l 678 407 l 678 475 l 610 543 l 339 543 l 339 0 l 68 0 l 68 949 z "},"ÿ":{"ha":1017,"x_min":68,"x_max":949,"o":"m 949 170 l 780 0 l 203 0 l 136 203 l 610 203 l 678 271 l 237 271 l 68 441 l 68 746 l 339 746 l 339 543 l 407 475 l 678 475 l 678 746 l 949 746 l 949 170 m 441 1051 l 441 848 l 170 848 l 170 1051 l 441 1051 m 848 1051 l 848 848 l 576 848 l 576 1051 l 848 1051 z "},"Č":{"ha":1153,"x_min":68,"x_max":1085,"o":"m 339 271 l 407 203 l 1085 203 l 1017 0 l 237 0 l 68 170 l 68 780 l 237 949 l 1017 949 l 1085 746 l 407 746 l 339 678 l 339 271 m 366 1051 l 203 1322 l 495 1322 l 576 1187 l 658 1322 l 949 1322 l 780 1051 l 366 1051 z "},"č":{"ha":1017,"x_min":68,"x_max":949,"o":"m 949 543 l 407 543 l 339 475 l 339 271 l 407 203 l 949 203 l 882 0 l 237 0 l 68 170 l 68 576 l 237 746 l 882 746 l 949 543 m 298 848 l 136 1119 l 427 1119 l 509 983 l 590 1119 l 882 1119 l 712 848 l 298 848 z "},"Ď":{"ha":1153,"x_min":68,"x_max":1085,"o":"m 68 949 l 916 949 l 1085 780 l 1085 170 l 916 0 l 68 0 l 68 949 m 339 746 l 339 210 l 746 210 l 814 278 l 814 678 l 746 746 l 339 746 m 366 1051 l 203 1322 l 495 1322 l 576 1187 l 658 1322 l 949 1322 l 780 1051 l 366 1051 z "},"ď":{"ha":1424,"x_min":68,"x_max":1356,"o":"m 68 170 l 68 576 l 237 746 l 610 746 l 610 543 l 407 543 l 339 475 l 339 271 l 407 203 l 610 203 l 678 271 l 678 949 l 949 949 l 949 170 l 780 0 l 237 0 l 68 170 m 1356 949 l 1356 644 l 1085 610 l 1085 949 l 1356 949 z "},"Ě":{"ha":1153,"x_min":68,"x_max":1085,"o":"m 1085 576 l 1085 373 l 339 373 l 339 271 l 407 203 l 1085 203 l 1017 0 l 237 0 l 68 170 l 68 780 l 237 949 l 1017 949 l 1085 746 l 407 746 l 339 678 l 339 576 l 1085 576 m 366 1051 l 203 1322 l 495 1322 l 576 1187 l 658 1322 l 949 1322 l 780 1051 l 366 1051 z "},"ě":{"ha":1017,"x_min":68,"x_max":949,"o":"m 949 576 l 949 441 l 780 271 l 407 271 l 407 475 l 610 475 l 644 509 l 610 543 l 407 543 l 339 475 l 339 271 l 407 203 l 882 203 l 814 0 l 237 0 l 68 170 l 68 576 l 237 746 l 780 746 l 949 576 m 298 848 l 136 1119 l 427 1119 l 509 983 l 590 1119 l 882 1119 l 712 848 l 298 848 z "},"ı":{"ha":407,"x_min":68,"x_max":339,"o":"m 339 746 l 339 0 l 68 0 l 68 746 l 339 746 z "},"Ň":{"ha":1153,"x_min":68,"x_max":1085,"o":"m 407 746 l 339 678 l 339 0 l 68 0 l 68 780 l 237 949 l 916 949 l 1085 780 l 1085 0 l 814 0 l 814 678 l 746 746 l 407 746 m 366 1051 l 203 1322 l 495 1322 l 576 1187 l 658 1322 l 949 1322 l 780 1051 l 366 1051 z "},"ň":{"ha":1017,"x_min":68,"x_max":949,"o":"m 339 475 l 339 0 l 68 0 l 68 576 l 237 746 l 780 746 l 949 576 l 949 0 l 678 0 l 678 475 l 610 543 l 407 543 l 339 475 m 298 848 l 136 1119 l 427 1119 l 509 983 l 590 1119 l 882 1119 l 712 848 l 298 848 z "},"Œ":{"ha":1899,"x_min":68,"x_max":1831,"o":"m 68 780 l 237 949 l 848 949 l 949 848 l 1051 949 l 1763 949 l 1831 746 l 1153 746 l 1085 678 l 1085 576 l 1831 576 l 1831 373 l 1085 373 l 1085 271 l 1153 203 l 1831 203 l 1763 0 l 1051 0 l 949 102 l 848 0 l 237 0 l 68 170 l 68 780 m 407 746 l 339 678 l 339 271 l 407 203 l 746 203 l 814 271 l 814 678 l 746 746 l 407 746 z "},"œ":{"ha":1628,"x_min":68,"x_max":1560,"o":"m 814 644 l 916 746 l 1390 746 l 1560 576 l 1560 441 l 1390 271 l 1017 271 l 1017 475 l 1221 475 l 1255 509 l 1221 543 l 1017 543 l 949 475 l 949 271 l 1017 203 l 1492 203 l 1424 0 l 916 0 l 814 102 l 712 0 l 237 0 l 68 170 l 68 576 l 237 746 l 712 746 l 814 644 m 339 475 l 339 271 l 407 203 l 610 203 l 678 271 l 678 475 l 610 543 l 407 543 l 339 475 z "},"Ř":{"ha":1153,"x_min":68,"x_max":1085,"o":"m 916 949 l 1085 780 l 1085 509 l 983 407 l 1085 305 l 1085 0 l 814 0 l 814 237 l 746 305 l 407 305 l 407 509 l 746 509 l 814 576 l 814 678 l 746 746 l 339 746 l 339 0 l 68 0 l 68 949 l 916 949 m 366 1051 l 203 1322 l 495 1322 l 576 1187 l 658 1322 l 949 1322 l 780 1051 l 366 1051 z "},"ř":{"ha":882,"x_min":68,"x_max":814,"o":"m 780 543 l 441 543 l 373 475 l 373 0 l 102 0 l 102 576 l 271 746 l 712 746 l 780 543 m 231 848 l 68 1119 l 359 1119 l 441 983 l 522 1119 l 814 1119 l 644 848 l 231 848 z "},"Š":{"ha":1153,"x_min":68,"x_max":1085,"o":"m 136 0 l 68 203 l 746 203 l 814 271 l 814 305 l 746 373 l 237 373 l 68 543 l 68 780 l 237 949 l 1017 949 l 1085 746 l 407 746 l 339 678 l 339 644 l 407 576 l 916 576 l 1085 407 l 1085 170 l 916 0 l 136 0 m 366 1051 l 203 1322 l 495 1322 l 576 1187 l 658 1322 l 949 1322 l 780 1051 l 366 1051 z "},"š":{"ha":1017,"x_min":68,"x_max":949,"o":"m 780 475 l 949 305 l 949 170 l 780 0 l 136 0 l 68 203 l 610 203 l 644 237 l 610 271 l 237 271 l 68 441 l 68 576 l 237 746 l 882 746 l 949 543 l 407 543 l 373 509 l 407 475 l 780 475 m 298 848 l 136 1119 l 427 1119 l 509 983 l 590 1119 l 882 1119 l 712 848 l 298 848 z "},"Ť":{"ha":1153,"x_min":68,"x_max":1085,"o":"m 1085 949 l 1085 746 l 712 746 l 712 0 l 441 0 l 441 746 l 68 746 l 68 949 l 1085 949 m 366 1051 l 203 1322 l 495 1322 l 576 1187 l 658 1322 l 949 1322 l 780 1051 l 366 1051 z "},"ť":{"ha":1221,"x_min":68,"x_max":1153,"o":"m 203 746 l 203 882 l 475 949 l 475 746 l 746 746 l 746 543 l 475 543 l 475 271 l 543 203 l 746 203 l 678 0 l 373 0 l 203 170 l 203 543 l 68 543 l 68 746 l 203 746 m 1153 949 l 1153 644 l 882 610 l 882 949 l 1153 949 z "},"Ů":{"ha":1153,"x_min":68,"x_max":1085,"o":"m 746 203 l 814 271 l 814 949 l 1085 949 l 1085 170 l 916 0 l 237 0 l 68 170 l 68 949 l 339 949 l 339 271 l 407 203 l 746 203 m 695 1390 l 797 1289 l 797 1153 l 695 1051 l 458 1051 l 356 1153 l 356 1289 l 458 1390 l 695 1390 m 526 1238 l 526 1204 l 559 1170 l 593 1170 l 627 1204 l 627 1238 l 593 1272 l 559 1272 l 526 1238 z "},"ů":{"ha":1017,"x_min":68,"x_max":949,"o":"m 68 170 l 68 746 l 339 746 l 339 271 l 407 203 l 610 203 l 678 271 l 678 746 l 949 746 l 949 170 l 780 0 l 237 0 l 68 170 m 627 1187 l 729 1085 l 729 949 l 627 848 l 390 848 l 288 949 l 288 1085 l 390 1187 l 627 1187 m 458 1034 l 458 1000 l 492 966 l 526 966 l 559 1000 l 559 1034 l 526 1068 l 492 1068 l 458 1034 z "},"Ÿ":{"ha":1153,"x_min":68,"x_max":1085,"o":"m 68 949 l 339 949 l 339 624 l 543 522 l 610 522 l 814 624 l 814 949 l 1085 949 l 1085 509 l 712 319 l 712 0 l 441 0 l 441 319 l 68 509 l 68 949 m 509 1255 l 509 1051 l 237 1051 l 237 1255 l 509 1255 m 916 1255 l 916 1051 l 644 1051 l 644 1255 l 916 1255 z "},"Ž":{"ha":1153,"x_min":68,"x_max":1085,"o":"m 68 0 l 68 203 l 712 746 l 68 746 l 68 949 l 1085 949 l 1085 746 l 441 203 l 1085 203 l 1085 0 l 68 0 m 366 1051 l 203 1322 l 495 1322 l 576 1187 l 658 1322 l 949 1322 l 780 1051 l 366 1051 z "},"ž":{"ha":1017,"x_min":68,"x_max":949,"o":"m 68 0 l 68 203 l 556 543 l 68 543 l 68 746 l 949 746 l 949 543 l 461 203 l 949 203 l 949 0 l 68 0 m 298 848 l 136 1119 l 427 1119 l 509 983 l 590 1119 l 882 1119 l 712 848 l 298 848 z "},"ƒ":{"ha":949,"x_min":68,"x_max":882,"o":"m 68 203 l 271 203 l 339 271 l 339 475 l 203 475 l 203 678 l 339 678 l 339 780 l 509 949 l 814 949 l 882 746 l 678 746 l 610 678 l 882 678 l 882 475 l 610 475 l 610 170 l 441 0 l 136 0 l 68 203 z "},"ˆ":{"ha":882,"x_min":68,"x_max":814,"o":"m 651 1119 l 814 848 l 522 848 l 441 983 l 359 848 l 68 848 l 237 1119 l 651 1119 z "},"ˇ":{"ha":882,"x_min":68,"x_max":814,"o":"m 231 848 l 68 1119 l 359 1119 l 441 983 l 522 1119 l 814 1119 l 644 848 l 231 848 z "},"˘":{"ha":780,"x_min":68,"x_max":712,"o":"m 68 1153 l 305 1153 l 305 1051 l 339 1017 l 441 1017 l 475 1051 l 475 1153 l 712 1153 l 712 949 l 610 848 l 170 848 l 68 949 l 68 1153 z "},"˙":{"ha":407,"x_min":68,"x_max":339,"o":"m 339 1051 l 339 848 l 68 848 l 68 1051 l 339 1051 z "},"˚":{"ha":576,"x_min":68,"x_max":509,"o":"m 407 1187 l 509 1085 l 509 949 l 407 848 l 170 848 l 68 949 l 68 1085 l 170 1187 l 407 1187 m 237 1034 l 237 1000 l 271 966 l 305 966 l 339 1000 l 339 1034 l 305 1068 l 271 1068 l 237 1034 z "},"˛":{"ha":543,"x_min":68,"x_max":475,"o":"m 197 -305 l 68 -102 l 346 -102 l 475 -305 l 197 -305 z "},"˜":{"ha":861,"x_min":68,"x_max":793,"o":"m 68 949 l 203 1085 l 420 1085 l 509 997 l 590 997 l 610 1017 l 610 1085 l 793 1085 l 793 983 l 658 848 l 442 848 l 441 845 l 353 936 l 271 936 l 251 916 l 251 848 l 68 848 l 68 949 z "},"˝":{"ha":949,"x_min":68,"x_max":882,"o":"m 475 1051 l 346 848 l 68 848 l 197 1051 l 475 1051 m 882 1051 l 753 848 l 475 848 l 604 1051 l 882 1051 z "},"–":{"ha":746,"x_min":68,"x_max":678,"o":"m 68 576 l 678 576 l 678 373 l 68 373 l 68 576 z "},"—":{"ha":1017,"x_min":68,"x_max":949,"o":"m 68 576 l 949 576 l 949 373 l 68 373 l 68 576 z "},"‘":{"ha":407,"x_min":68,"x_max":339,"o":"m 339 949 l 339 610 l 68 644 l 68 949 l 339 949 z "},"’":{"ha":407,"x_min":68,"x_max":339,"o":"m 339 949 l 339 644 l 68 610 l 68 949 l 339 949 z "},"‚":{"ha":407,"x_min":68,"x_max":339,"o":"m 339 136 l 339 -170 l 68 -203 l 68 136 l 339 136 z "},"“":{"ha":814,"x_min":68,"x_max":746,"o":"m 746 949 l 746 610 l 475 644 l 475 949 l 746 949 m 339 949 l 339 610 l 68 644 l 68 949 l 339 949 z "},"”":{"ha":814,"x_min":68,"x_max":746,"o":"m 339 949 l 339 644 l 68 610 l 68 949 l 339 949 m 746 949 l 746 644 l 475 610 l 475 949 l 746 949 z "},"„":{"ha":814,"x_min":68,"x_max":746,"o":"m 339 136 l 339 -170 l 68 -203 l 68 136 l 339 136 m 746 136 l 746 -170 l 475 -203 l 475 136 l 746 136 z "},"†":{"ha":882,"x_min":68,"x_max":814,"o":"m 576 949 l 576 746 l 814 746 l 814 543 l 576 543 l 576 0 l 305 0 l 305 543 l 68 543 l 68 746 l 305 746 l 305 949 l 576 949 z "},"‡":{"ha":882,"x_min":68,"x_max":814,"o":"m 576 949 l 576 746 l 814 746 l 814 543 l 576 543 l 576 407 l 814 407 l 814 203 l 576 203 l 576 0 l 305 0 l 305 203 l 68 203 l 68 407 l 305 407 l 305 543 l 68 543 l 68 746 l 305 746 l 305 949 l 576 949 z "},"•":{"ha":407,"x_min":68,"x_max":339,"o":"m 68 339 l 68 610 l 339 610 l 339 339 l 68 339 z "},"…":{"ha":1221,"x_min":68,"x_max":1153,"o":"m 339 203 l 339 0 l 68 0 l 68 203 l 339 203 m 746 203 l 746 0 l 475 0 l 475 203 l 746 203 m 1153 203 l 1153 0 l 882 0 l 882 203 l 1153 203 z "},"‰":{"ha":2035,"x_min":68,"x_max":1967,"o":"m 237 949 l 441 949 l 610 780 l 610 576 l 441 407 l 237 407 l 68 576 l 68 780 l 237 949 m 983 543 l 1187 543 l 1356 373 l 1356 170 l 1187 0 l 983 0 l 814 170 l 814 373 l 983 543 m 203 0 l 949 949 l 1221 949 l 475 0 l 203 0 m 1051 373 l 983 305 l 983 237 l 1051 170 l 1119 170 l 1187 237 l 1187 305 l 1119 373 l 1051 373 m 305 780 l 237 712 l 237 644 l 305 576 l 373 576 l 441 644 l 441 712 l 373 780 l 305 780 m 1594 543 l 1797 543 l 1967 373 l 1967 170 l 1797 0 l 1594 0 l 1424 170 l 1424 373 l 1594 543 m 1662 373 l 1594 305 l 1594 237 l 1662 170 l 1729 170 l 1797 237 l 1797 305 l 1729 373 l 1662 373 z "},"‹":{"ha":475,"x_min":68,"x_max":407,"o":"m 407 882 l 407 576 l 305 475 l 407 373 l 407 68 l 68 407 l 68 543 l 407 882 z "},"›":{"ha":475,"x_min":68,"x_max":407,"o":"m 68 68 l 68 373 l 170 475 l 68 576 l 68 882 l 407 543 l 407 407 l 68 68 z "},"€":{"ha":1153,"x_min":68,"x_max":1085,"o":"m 203 678 l 203 780 l 373 949 l 1017 949 l 1085 746 l 543 746 l 475 678 l 880 678 l 836 509 l 475 509 l 475 441 l 819 441 l 774 271 l 475 271 l 543 203 l 1085 203 l 1017 0 l 373 0 l 203 170 l 203 271 l 68 271 l 68 441 l 203 441 l 203 509 l 68 509 l 68 678 l 203 678 z "},"™":{"ha":1560,"x_min":68,"x_max":1492,"o":"m 994 475 l 994 800 l 895 800 l 861 766 l 861 475 l 678 475 l 678 848 l 780 949 l 1390 949 l 1492 848 l 1492 475 l 1316 475 l 1316 760 l 1275 800 l 1177 800 l 1177 475 l 994 475 m 248 475 l 248 793 l 68 793 l 68 949 l 610 949 l 610 793 l 431 793 l 431 475 l 248 475 z "}}}
